<mxfile host="Electron" agent="Mozilla/5.0 (Windows NT 10.0; Win64; x64) AppleWebKit/537.36 (KHTML, like Gecko) draw.io/22.0.3 Chrome/114.0.5735.289 Electron/25.8.4 Safari/537.36" modified="2025-01-13T18:04:32.428Z" etag="oGOJrx5p1l1HvAsi87nk" version="22.0.3" type="device">
  <diagram id="C5RBs43oDa-KdzZeNtuy" name="Entidad-Relacion">
    <mxGraphModel dx="6753" dy="1079" grid="1" gridSize="10" guides="1" tooltips="1" connect="1" arrows="1" fold="1" page="1" pageScale="1" pageWidth="827" pageHeight="1169" math="0" shadow="0">
      <root>
        <mxCell id="WIyWlLk6GJQsqaUBKTNV-0" />
        <mxCell id="WIyWlLk6GJQsqaUBKTNV-1" parent="WIyWlLk6GJQsqaUBKTNV-0" />
        <mxCell id="IcJAFvXMcdlUpBERANjo-21" value="" style="group;fillColor=#fff2cc;strokeColor=#d6b656;" parent="WIyWlLk6GJQsqaUBKTNV-1" vertex="1" connectable="0">
          <mxGeometry x="-700" y="2860" width="1370" height="1370" as="geometry" />
        </mxCell>
        <mxCell id="IcJAFvXMcdlUpBERANjo-20" value="" style="whiteSpace=wrap;html=1;aspect=fixed;" parent="IcJAFvXMcdlUpBERANjo-21" vertex="1">
          <mxGeometry width="1370" height="1370" as="geometry" />
        </mxCell>
        <mxCell id="Yn_WXs409a5etzlrmCYC-3" value="Usuario" style="shape=table;startSize=30;container=1;collapsible=1;childLayout=tableLayout;fixedRows=1;rowLines=0;fontStyle=1;align=center;resizeLast=1;html=1;strokeColor=#b85450;verticalAlign=middle;fontFamily=Helvetica;fontSize=12;fontColor=default;fillColor=#f8cecc;" parent="IcJAFvXMcdlUpBERANjo-21" vertex="1">
          <mxGeometry x="960" y="120" width="180" height="180" as="geometry" />
        </mxCell>
        <mxCell id="Yn_WXs409a5etzlrmCYC-4" value="" style="shape=tableRow;horizontal=0;startSize=0;swimlaneHead=0;swimlaneBody=0;fillColor=none;collapsible=0;dropTarget=0;points=[[0,0.5],[1,0.5]];portConstraint=eastwest;top=0;left=0;right=0;bottom=1;strokeColor=#b85450;align=center;verticalAlign=middle;fontFamily=Helvetica;fontSize=12;fontColor=default;" parent="Yn_WXs409a5etzlrmCYC-3" vertex="1">
          <mxGeometry y="30" width="180" height="30" as="geometry" />
        </mxCell>
        <mxCell id="Yn_WXs409a5etzlrmCYC-5" value="PK" style="shape=partialRectangle;connectable=0;fillColor=none;top=0;left=0;bottom=0;right=0;fontStyle=1;overflow=hidden;whiteSpace=wrap;html=1;strokeColor=#b85450;align=center;verticalAlign=middle;fontFamily=Helvetica;fontSize=12;fontColor=default;" parent="Yn_WXs409a5etzlrmCYC-4" vertex="1">
          <mxGeometry width="30" height="30" as="geometry">
            <mxRectangle width="30" height="30" as="alternateBounds" />
          </mxGeometry>
        </mxCell>
        <mxCell id="Yn_WXs409a5etzlrmCYC-6" value="idusuario" style="shape=partialRectangle;connectable=0;fillColor=none;top=0;left=0;bottom=0;right=0;align=left;spacingLeft=6;fontStyle=5;overflow=hidden;whiteSpace=wrap;html=1;strokeColor=#b85450;verticalAlign=middle;fontFamily=Helvetica;fontSize=12;fontColor=default;" parent="Yn_WXs409a5etzlrmCYC-4" vertex="1">
          <mxGeometry x="30" width="150" height="30" as="geometry">
            <mxRectangle width="150" height="30" as="alternateBounds" />
          </mxGeometry>
        </mxCell>
        <mxCell id="Yn_WXs409a5etzlrmCYC-7" value="" style="shape=tableRow;horizontal=0;startSize=0;swimlaneHead=0;swimlaneBody=0;fillColor=none;collapsible=0;dropTarget=0;points=[[0,0.5],[1,0.5]];portConstraint=eastwest;top=0;left=0;right=0;bottom=0;strokeColor=#b85450;align=center;verticalAlign=middle;fontFamily=Helvetica;fontSize=12;fontColor=default;" parent="Yn_WXs409a5etzlrmCYC-3" vertex="1">
          <mxGeometry y="60" width="180" height="30" as="geometry" />
        </mxCell>
        <mxCell id="Yn_WXs409a5etzlrmCYC-8" value="" style="shape=partialRectangle;connectable=0;fillColor=none;top=0;left=0;bottom=0;right=0;editable=1;overflow=hidden;whiteSpace=wrap;html=1;strokeColor=#b85450;align=center;verticalAlign=middle;fontFamily=Helvetica;fontSize=12;fontColor=default;" parent="Yn_WXs409a5etzlrmCYC-7" vertex="1">
          <mxGeometry width="30" height="30" as="geometry">
            <mxRectangle width="30" height="30" as="alternateBounds" />
          </mxGeometry>
        </mxCell>
        <mxCell id="Yn_WXs409a5etzlrmCYC-9" value="loginName" style="shape=partialRectangle;connectable=0;fillColor=none;top=0;left=0;bottom=0;right=0;align=left;spacingLeft=6;overflow=hidden;whiteSpace=wrap;html=1;strokeColor=#b85450;verticalAlign=middle;fontFamily=Helvetica;fontSize=12;fontColor=default;" parent="Yn_WXs409a5etzlrmCYC-7" vertex="1">
          <mxGeometry x="30" width="150" height="30" as="geometry">
            <mxRectangle width="150" height="30" as="alternateBounds" />
          </mxGeometry>
        </mxCell>
        <mxCell id="Yn_WXs409a5etzlrmCYC-10" value="" style="shape=tableRow;horizontal=0;startSize=0;swimlaneHead=0;swimlaneBody=0;fillColor=none;collapsible=0;dropTarget=0;points=[[0,0.5],[1,0.5]];portConstraint=eastwest;top=0;left=0;right=0;bottom=0;strokeColor=#b85450;align=center;verticalAlign=middle;fontFamily=Helvetica;fontSize=12;fontColor=default;" parent="Yn_WXs409a5etzlrmCYC-3" vertex="1">
          <mxGeometry y="90" width="180" height="30" as="geometry" />
        </mxCell>
        <mxCell id="Yn_WXs409a5etzlrmCYC-11" value="" style="shape=partialRectangle;connectable=0;fillColor=none;top=0;left=0;bottom=0;right=0;editable=1;overflow=hidden;whiteSpace=wrap;html=1;strokeColor=#b85450;align=center;verticalAlign=middle;fontFamily=Helvetica;fontSize=12;fontColor=default;" parent="Yn_WXs409a5etzlrmCYC-10" vertex="1">
          <mxGeometry width="30" height="30" as="geometry">
            <mxRectangle width="30" height="30" as="alternateBounds" />
          </mxGeometry>
        </mxCell>
        <mxCell id="Yn_WXs409a5etzlrmCYC-12" value="FullName" style="shape=partialRectangle;connectable=0;fillColor=none;top=0;left=0;bottom=0;right=0;align=left;spacingLeft=6;overflow=hidden;whiteSpace=wrap;html=1;strokeColor=#b85450;verticalAlign=middle;fontFamily=Helvetica;fontSize=12;fontColor=default;" parent="Yn_WXs409a5etzlrmCYC-10" vertex="1">
          <mxGeometry x="30" width="150" height="30" as="geometry">
            <mxRectangle width="150" height="30" as="alternateBounds" />
          </mxGeometry>
        </mxCell>
        <mxCell id="Yn_WXs409a5etzlrmCYC-13" value="" style="shape=tableRow;horizontal=0;startSize=0;swimlaneHead=0;swimlaneBody=0;fillColor=none;collapsible=0;dropTarget=0;points=[[0,0.5],[1,0.5]];portConstraint=eastwest;top=0;left=0;right=0;bottom=0;strokeColor=#b85450;align=center;verticalAlign=middle;fontFamily=Helvetica;fontSize=12;fontColor=default;" parent="Yn_WXs409a5etzlrmCYC-3" vertex="1">
          <mxGeometry y="120" width="180" height="30" as="geometry" />
        </mxCell>
        <mxCell id="Yn_WXs409a5etzlrmCYC-14" value="" style="shape=partialRectangle;connectable=0;fillColor=none;top=0;left=0;bottom=0;right=0;editable=1;overflow=hidden;whiteSpace=wrap;html=1;strokeColor=#b85450;align=center;verticalAlign=middle;fontFamily=Helvetica;fontSize=12;fontColor=default;" parent="Yn_WXs409a5etzlrmCYC-13" vertex="1">
          <mxGeometry width="30" height="30" as="geometry">
            <mxRectangle width="30" height="30" as="alternateBounds" />
          </mxGeometry>
        </mxCell>
        <mxCell id="Yn_WXs409a5etzlrmCYC-15" value="Password" style="shape=partialRectangle;connectable=0;fillColor=none;top=0;left=0;bottom=0;right=0;align=left;spacingLeft=6;overflow=hidden;whiteSpace=wrap;html=1;strokeColor=#b85450;verticalAlign=middle;fontFamily=Helvetica;fontSize=12;fontColor=default;" parent="Yn_WXs409a5etzlrmCYC-13" vertex="1">
          <mxGeometry x="30" width="150" height="30" as="geometry">
            <mxRectangle width="150" height="30" as="alternateBounds" />
          </mxGeometry>
        </mxCell>
        <mxCell id="uocuBpoWuZLB5lscc0YK-18" value="" style="shape=tableRow;horizontal=0;startSize=0;swimlaneHead=0;swimlaneBody=0;fillColor=none;collapsible=0;dropTarget=0;points=[[0,0.5],[1,0.5]];portConstraint=eastwest;top=0;left=0;right=0;bottom=0;strokeColor=#b85450;align=center;verticalAlign=middle;fontFamily=Helvetica;fontSize=12;fontColor=default;" parent="Yn_WXs409a5etzlrmCYC-3" vertex="1">
          <mxGeometry y="150" width="180" height="30" as="geometry" />
        </mxCell>
        <mxCell id="uocuBpoWuZLB5lscc0YK-19" value="" style="shape=partialRectangle;connectable=0;fillColor=none;top=0;left=0;bottom=0;right=0;editable=1;overflow=hidden;whiteSpace=wrap;html=1;strokeColor=#b85450;align=center;verticalAlign=middle;fontFamily=Helvetica;fontSize=12;fontColor=default;" parent="uocuBpoWuZLB5lscc0YK-18" vertex="1">
          <mxGeometry width="30" height="30" as="geometry">
            <mxRectangle width="30" height="30" as="alternateBounds" />
          </mxGeometry>
        </mxCell>
        <mxCell id="uocuBpoWuZLB5lscc0YK-20" value="email" style="shape=partialRectangle;connectable=0;fillColor=none;top=0;left=0;bottom=0;right=0;align=left;spacingLeft=6;overflow=hidden;whiteSpace=wrap;html=1;strokeColor=#b85450;verticalAlign=middle;fontFamily=Helvetica;fontSize=12;fontColor=default;" parent="uocuBpoWuZLB5lscc0YK-18" vertex="1">
          <mxGeometry x="30" width="150" height="30" as="geometry">
            <mxRectangle width="150" height="30" as="alternateBounds" />
          </mxGeometry>
        </mxCell>
        <mxCell id="Yn_WXs409a5etzlrmCYC-16" value="Ciclo" style="shape=table;startSize=30;container=1;collapsible=1;childLayout=tableLayout;fixedRows=1;rowLines=0;fontStyle=1;align=center;resizeLast=1;html=1;strokeColor=#b85450;verticalAlign=middle;fontFamily=Helvetica;fontSize=12;fontColor=default;fillColor=#f8cecc;" parent="IcJAFvXMcdlUpBERANjo-21" vertex="1">
          <mxGeometry x="130" y="660" width="180" height="120" as="geometry" />
        </mxCell>
        <mxCell id="Yn_WXs409a5etzlrmCYC-17" value="" style="shape=tableRow;horizontal=0;startSize=0;swimlaneHead=0;swimlaneBody=0;fillColor=none;collapsible=0;dropTarget=0;points=[[0,0.5],[1,0.5]];portConstraint=eastwest;top=0;left=0;right=0;bottom=1;strokeColor=#b85450;align=center;verticalAlign=middle;fontFamily=Helvetica;fontSize=12;fontColor=default;" parent="Yn_WXs409a5etzlrmCYC-16" vertex="1">
          <mxGeometry y="30" width="180" height="30" as="geometry" />
        </mxCell>
        <mxCell id="Yn_WXs409a5etzlrmCYC-18" value="PK" style="shape=partialRectangle;connectable=0;fillColor=none;top=0;left=0;bottom=0;right=0;fontStyle=1;overflow=hidden;whiteSpace=wrap;html=1;strokeColor=#b85450;align=center;verticalAlign=middle;fontFamily=Helvetica;fontSize=12;fontColor=default;" parent="Yn_WXs409a5etzlrmCYC-17" vertex="1">
          <mxGeometry width="30" height="30" as="geometry">
            <mxRectangle width="30" height="30" as="alternateBounds" />
          </mxGeometry>
        </mxCell>
        <mxCell id="Yn_WXs409a5etzlrmCYC-19" value="codCiclo" style="shape=partialRectangle;connectable=0;fillColor=none;top=0;left=0;bottom=0;right=0;align=left;spacingLeft=6;fontStyle=5;overflow=hidden;whiteSpace=wrap;html=1;strokeColor=#b85450;verticalAlign=middle;fontFamily=Helvetica;fontSize=12;fontColor=default;" parent="Yn_WXs409a5etzlrmCYC-17" vertex="1">
          <mxGeometry x="30" width="150" height="30" as="geometry">
            <mxRectangle width="150" height="30" as="alternateBounds" />
          </mxGeometry>
        </mxCell>
        <mxCell id="Yn_WXs409a5etzlrmCYC-20" value="" style="shape=tableRow;horizontal=0;startSize=0;swimlaneHead=0;swimlaneBody=0;fillColor=none;collapsible=0;dropTarget=0;points=[[0,0.5],[1,0.5]];portConstraint=eastwest;top=0;left=0;right=0;bottom=0;strokeColor=#b85450;align=center;verticalAlign=middle;fontFamily=Helvetica;fontSize=12;fontColor=default;" parent="Yn_WXs409a5etzlrmCYC-16" vertex="1">
          <mxGeometry y="60" width="180" height="30" as="geometry" />
        </mxCell>
        <mxCell id="Yn_WXs409a5etzlrmCYC-21" value="" style="shape=partialRectangle;connectable=0;fillColor=none;top=0;left=0;bottom=0;right=0;editable=1;overflow=hidden;whiteSpace=wrap;html=1;strokeColor=#b85450;align=center;verticalAlign=middle;fontFamily=Helvetica;fontSize=12;fontColor=default;" parent="Yn_WXs409a5etzlrmCYC-20" vertex="1">
          <mxGeometry width="30" height="30" as="geometry">
            <mxRectangle width="30" height="30" as="alternateBounds" />
          </mxGeometry>
        </mxCell>
        <mxCell id="Yn_WXs409a5etzlrmCYC-22" value="Name" style="shape=partialRectangle;connectable=0;fillColor=none;top=0;left=0;bottom=0;right=0;align=left;spacingLeft=6;overflow=hidden;whiteSpace=wrap;html=1;strokeColor=#b85450;verticalAlign=middle;fontFamily=Helvetica;fontSize=12;fontColor=default;" parent="Yn_WXs409a5etzlrmCYC-20" vertex="1">
          <mxGeometry x="30" width="150" height="30" as="geometry">
            <mxRectangle width="150" height="30" as="alternateBounds" />
          </mxGeometry>
        </mxCell>
        <mxCell id="Yn_WXs409a5etzlrmCYC-23" value="" style="shape=tableRow;horizontal=0;startSize=0;swimlaneHead=0;swimlaneBody=0;fillColor=none;collapsible=0;dropTarget=0;points=[[0,0.5],[1,0.5]];portConstraint=eastwest;top=0;left=0;right=0;bottom=0;strokeColor=#b85450;align=center;verticalAlign=middle;fontFamily=Helvetica;fontSize=12;fontColor=default;" parent="Yn_WXs409a5etzlrmCYC-16" vertex="1">
          <mxGeometry y="90" width="180" height="30" as="geometry" />
        </mxCell>
        <mxCell id="Yn_WXs409a5etzlrmCYC-24" value="" style="shape=partialRectangle;connectable=0;fillColor=none;top=0;left=0;bottom=0;right=0;editable=1;overflow=hidden;whiteSpace=wrap;html=1;strokeColor=#b85450;align=center;verticalAlign=middle;fontFamily=Helvetica;fontSize=12;fontColor=default;" parent="Yn_WXs409a5etzlrmCYC-23" vertex="1">
          <mxGeometry width="30" height="30" as="geometry">
            <mxRectangle width="30" height="30" as="alternateBounds" />
          </mxGeometry>
        </mxCell>
        <mxCell id="Yn_WXs409a5etzlrmCYC-25" value="familiaProfesional" style="shape=partialRectangle;connectable=0;fillColor=none;top=0;left=0;bottom=0;right=0;align=left;spacingLeft=6;overflow=hidden;whiteSpace=wrap;html=1;strokeColor=#b85450;verticalAlign=middle;fontFamily=Helvetica;fontSize=12;fontColor=default;" parent="Yn_WXs409a5etzlrmCYC-23" vertex="1">
          <mxGeometry x="30" width="150" height="30" as="geometry">
            <mxRectangle width="150" height="30" as="alternateBounds" />
          </mxGeometry>
        </mxCell>
        <mxCell id="Yn_WXs409a5etzlrmCYC-32" value="Módulo" style="shape=table;startSize=30;container=1;collapsible=1;childLayout=tableLayout;fixedRows=1;rowLines=0;fontStyle=1;align=center;resizeLast=1;html=1;strokeColor=#b85450;verticalAlign=middle;fontFamily=Helvetica;fontSize=12;fontColor=default;fillColor=#f8cecc;" parent="IcJAFvXMcdlUpBERANjo-21" vertex="1">
          <mxGeometry x="645" y="920" width="180" height="180" as="geometry" />
        </mxCell>
        <mxCell id="Yn_WXs409a5etzlrmCYC-33" value="" style="shape=tableRow;horizontal=0;startSize=0;swimlaneHead=0;swimlaneBody=0;fillColor=none;collapsible=0;dropTarget=0;points=[[0,0.5],[1,0.5]];portConstraint=eastwest;top=0;left=0;right=0;bottom=1;strokeColor=#b85450;align=center;verticalAlign=middle;fontFamily=Helvetica;fontSize=12;fontColor=default;" parent="Yn_WXs409a5etzlrmCYC-32" vertex="1">
          <mxGeometry y="30" width="180" height="30" as="geometry" />
        </mxCell>
        <mxCell id="Yn_WXs409a5etzlrmCYC-34" value="PK" style="shape=partialRectangle;connectable=0;fillColor=none;top=0;left=0;bottom=0;right=0;fontStyle=1;overflow=hidden;whiteSpace=wrap;html=1;strokeColor=#b85450;align=center;verticalAlign=middle;fontFamily=Helvetica;fontSize=12;fontColor=default;" parent="Yn_WXs409a5etzlrmCYC-33" vertex="1">
          <mxGeometry width="30" height="30" as="geometry">
            <mxRectangle width="30" height="30" as="alternateBounds" />
          </mxGeometry>
        </mxCell>
        <mxCell id="Yn_WXs409a5etzlrmCYC-35" value="IdModulo" style="shape=partialRectangle;connectable=0;fillColor=none;top=0;left=0;bottom=0;right=0;align=left;spacingLeft=6;fontStyle=5;overflow=hidden;whiteSpace=wrap;html=1;strokeColor=#b85450;verticalAlign=middle;fontFamily=Helvetica;fontSize=12;fontColor=default;" parent="Yn_WXs409a5etzlrmCYC-33" vertex="1">
          <mxGeometry x="30" width="150" height="30" as="geometry">
            <mxRectangle width="150" height="30" as="alternateBounds" />
          </mxGeometry>
        </mxCell>
        <mxCell id="Yn_WXs409a5etzlrmCYC-104" value="" style="shape=tableRow;horizontal=0;startSize=0;swimlaneHead=0;swimlaneBody=0;fillColor=none;collapsible=0;dropTarget=0;points=[[0,0.5],[1,0.5]];portConstraint=eastwest;top=0;left=0;right=0;bottom=0;strokeColor=#b85450;align=center;verticalAlign=middle;fontFamily=Helvetica;fontSize=12;fontColor=default;" parent="Yn_WXs409a5etzlrmCYC-32" vertex="1">
          <mxGeometry y="60" width="180" height="30" as="geometry" />
        </mxCell>
        <mxCell id="Yn_WXs409a5etzlrmCYC-105" value="" style="shape=partialRectangle;connectable=0;fillColor=none;top=0;left=0;bottom=0;right=0;editable=1;overflow=hidden;whiteSpace=wrap;html=1;strokeColor=#b85450;align=center;verticalAlign=middle;fontFamily=Helvetica;fontSize=12;fontColor=default;" parent="Yn_WXs409a5etzlrmCYC-104" vertex="1">
          <mxGeometry width="30" height="30" as="geometry">
            <mxRectangle width="30" height="30" as="alternateBounds" />
          </mxGeometry>
        </mxCell>
        <mxCell id="Yn_WXs409a5etzlrmCYC-106" value="Código" style="shape=partialRectangle;connectable=0;fillColor=none;top=0;left=0;bottom=0;right=0;align=left;spacingLeft=6;overflow=hidden;whiteSpace=wrap;html=1;strokeColor=#b85450;verticalAlign=middle;fontFamily=Helvetica;fontSize=12;fontColor=default;" parent="Yn_WXs409a5etzlrmCYC-104" vertex="1">
          <mxGeometry x="30" width="150" height="30" as="geometry">
            <mxRectangle width="150" height="30" as="alternateBounds" />
          </mxGeometry>
        </mxCell>
        <mxCell id="Yn_WXs409a5etzlrmCYC-36" value="" style="shape=tableRow;horizontal=0;startSize=0;swimlaneHead=0;swimlaneBody=0;fillColor=none;collapsible=0;dropTarget=0;points=[[0,0.5],[1,0.5]];portConstraint=eastwest;top=0;left=0;right=0;bottom=0;strokeColor=#b85450;align=center;verticalAlign=middle;fontFamily=Helvetica;fontSize=12;fontColor=default;" parent="Yn_WXs409a5etzlrmCYC-32" vertex="1">
          <mxGeometry y="90" width="180" height="30" as="geometry" />
        </mxCell>
        <mxCell id="Yn_WXs409a5etzlrmCYC-37" value="" style="shape=partialRectangle;connectable=0;fillColor=none;top=0;left=0;bottom=0;right=0;editable=1;overflow=hidden;whiteSpace=wrap;html=1;strokeColor=#b85450;align=center;verticalAlign=middle;fontFamily=Helvetica;fontSize=12;fontColor=default;" parent="Yn_WXs409a5etzlrmCYC-36" vertex="1">
          <mxGeometry width="30" height="30" as="geometry">
            <mxRectangle width="30" height="30" as="alternateBounds" />
          </mxGeometry>
        </mxCell>
        <mxCell id="Yn_WXs409a5etzlrmCYC-38" value="Nombre" style="shape=partialRectangle;connectable=0;fillColor=none;top=0;left=0;bottom=0;right=0;align=left;spacingLeft=6;overflow=hidden;whiteSpace=wrap;html=1;strokeColor=#b85450;verticalAlign=middle;fontFamily=Helvetica;fontSize=12;fontColor=default;" parent="Yn_WXs409a5etzlrmCYC-36" vertex="1">
          <mxGeometry x="30" width="150" height="30" as="geometry">
            <mxRectangle width="150" height="30" as="alternateBounds" />
          </mxGeometry>
        </mxCell>
        <mxCell id="Yn_WXs409a5etzlrmCYC-39" value="" style="shape=tableRow;horizontal=0;startSize=0;swimlaneHead=0;swimlaneBody=0;fillColor=none;collapsible=0;dropTarget=0;points=[[0,0.5],[1,0.5]];portConstraint=eastwest;top=0;left=0;right=0;bottom=0;strokeColor=#b85450;align=center;verticalAlign=middle;fontFamily=Helvetica;fontSize=12;fontColor=default;" parent="Yn_WXs409a5etzlrmCYC-32" vertex="1">
          <mxGeometry y="120" width="180" height="30" as="geometry" />
        </mxCell>
        <mxCell id="Yn_WXs409a5etzlrmCYC-40" value="" style="shape=partialRectangle;connectable=0;fillColor=none;top=0;left=0;bottom=0;right=0;editable=1;overflow=hidden;whiteSpace=wrap;html=1;strokeColor=#b85450;align=center;verticalAlign=middle;fontFamily=Helvetica;fontSize=12;fontColor=default;" parent="Yn_WXs409a5etzlrmCYC-39" vertex="1">
          <mxGeometry width="30" height="30" as="geometry">
            <mxRectangle width="30" height="30" as="alternateBounds" />
          </mxGeometry>
        </mxCell>
        <mxCell id="Yn_WXs409a5etzlrmCYC-41" value="HorasSemana" style="shape=partialRectangle;connectable=0;fillColor=none;top=0;left=0;bottom=0;right=0;align=left;spacingLeft=6;overflow=hidden;whiteSpace=wrap;html=1;strokeColor=#b85450;verticalAlign=middle;fontFamily=Helvetica;fontSize=12;fontColor=default;" parent="Yn_WXs409a5etzlrmCYC-39" vertex="1">
          <mxGeometry x="30" width="150" height="30" as="geometry">
            <mxRectangle width="150" height="30" as="alternateBounds" />
          </mxGeometry>
        </mxCell>
        <mxCell id="Yn_WXs409a5etzlrmCYC-42" value="" style="shape=tableRow;horizontal=0;startSize=0;swimlaneHead=0;swimlaneBody=0;fillColor=none;collapsible=0;dropTarget=0;points=[[0,0.5],[1,0.5]];portConstraint=eastwest;top=0;left=0;right=0;bottom=0;strokeColor=#b85450;align=center;verticalAlign=middle;fontFamily=Helvetica;fontSize=12;fontColor=default;" parent="Yn_WXs409a5etzlrmCYC-32" vertex="1">
          <mxGeometry y="150" width="180" height="30" as="geometry" />
        </mxCell>
        <mxCell id="Yn_WXs409a5etzlrmCYC-43" value="" style="shape=partialRectangle;connectable=0;fillColor=none;top=0;left=0;bottom=0;right=0;editable=1;overflow=hidden;whiteSpace=wrap;html=1;strokeColor=#b85450;align=center;verticalAlign=middle;fontFamily=Helvetica;fontSize=12;fontColor=default;" parent="Yn_WXs409a5etzlrmCYC-42" vertex="1">
          <mxGeometry width="30" height="30" as="geometry">
            <mxRectangle width="30" height="30" as="alternateBounds" />
          </mxGeometry>
        </mxCell>
        <mxCell id="Yn_WXs409a5etzlrmCYC-44" value="HorasTotales" style="shape=partialRectangle;connectable=0;fillColor=none;top=0;left=0;bottom=0;right=0;align=left;spacingLeft=6;overflow=hidden;whiteSpace=wrap;html=1;strokeColor=#b85450;verticalAlign=middle;fontFamily=Helvetica;fontSize=12;fontColor=default;" parent="Yn_WXs409a5etzlrmCYC-42" vertex="1">
          <mxGeometry x="30" width="150" height="30" as="geometry">
            <mxRectangle width="150" height="30" as="alternateBounds" />
          </mxGeometry>
        </mxCell>
        <mxCell id="Yn_WXs409a5etzlrmCYC-45" value="Sesion" style="shape=table;startSize=30;container=1;collapsible=1;childLayout=tableLayout;fixedRows=1;rowLines=0;fontStyle=1;align=center;resizeLast=1;html=1;strokeColor=#b85450;verticalAlign=middle;fontFamily=Helvetica;fontSize=12;fontColor=default;fillColor=#f8cecc;" parent="IcJAFvXMcdlUpBERANjo-21" vertex="1">
          <mxGeometry x="1130" y="920" width="180" height="180" as="geometry" />
        </mxCell>
        <mxCell id="Yn_WXs409a5etzlrmCYC-46" value="" style="shape=tableRow;horizontal=0;startSize=0;swimlaneHead=0;swimlaneBody=0;fillColor=none;collapsible=0;dropTarget=0;points=[[0,0.5],[1,0.5]];portConstraint=eastwest;top=0;left=0;right=0;bottom=1;strokeColor=#b85450;align=center;verticalAlign=middle;fontFamily=Helvetica;fontSize=12;fontColor=default;" parent="Yn_WXs409a5etzlrmCYC-45" vertex="1">
          <mxGeometry y="30" width="180" height="30" as="geometry" />
        </mxCell>
        <mxCell id="Yn_WXs409a5etzlrmCYC-47" value="PK" style="shape=partialRectangle;connectable=0;fillColor=none;top=0;left=0;bottom=0;right=0;fontStyle=1;overflow=hidden;whiteSpace=wrap;html=1;strokeColor=#b85450;align=center;verticalAlign=middle;fontFamily=Helvetica;fontSize=12;fontColor=default;" parent="Yn_WXs409a5etzlrmCYC-46" vertex="1">
          <mxGeometry width="30" height="30" as="geometry">
            <mxRectangle width="30" height="30" as="alternateBounds" />
          </mxGeometry>
        </mxCell>
        <mxCell id="Yn_WXs409a5etzlrmCYC-48" value="IdSesion" style="shape=partialRectangle;connectable=0;fillColor=none;top=0;left=0;bottom=0;right=0;align=left;spacingLeft=6;fontStyle=5;overflow=hidden;whiteSpace=wrap;html=1;strokeColor=#b85450;verticalAlign=middle;fontFamily=Helvetica;fontSize=12;fontColor=default;" parent="Yn_WXs409a5etzlrmCYC-46" vertex="1">
          <mxGeometry x="30" width="150" height="30" as="geometry">
            <mxRectangle width="150" height="30" as="alternateBounds" />
          </mxGeometry>
        </mxCell>
        <mxCell id="Yn_WXs409a5etzlrmCYC-49" value="" style="shape=tableRow;horizontal=0;startSize=0;swimlaneHead=0;swimlaneBody=0;fillColor=none;collapsible=0;dropTarget=0;points=[[0,0.5],[1,0.5]];portConstraint=eastwest;top=0;left=0;right=0;bottom=0;strokeColor=#b85450;align=center;verticalAlign=middle;fontFamily=Helvetica;fontSize=12;fontColor=default;" parent="Yn_WXs409a5etzlrmCYC-45" vertex="1">
          <mxGeometry y="60" width="180" height="30" as="geometry" />
        </mxCell>
        <mxCell id="Yn_WXs409a5etzlrmCYC-50" value="" style="shape=partialRectangle;connectable=0;fillColor=none;top=0;left=0;bottom=0;right=0;editable=1;overflow=hidden;whiteSpace=wrap;html=1;strokeColor=#b85450;align=center;verticalAlign=middle;fontFamily=Helvetica;fontSize=12;fontColor=default;" parent="Yn_WXs409a5etzlrmCYC-49" vertex="1">
          <mxGeometry width="30" height="30" as="geometry">
            <mxRectangle width="30" height="30" as="alternateBounds" />
          </mxGeometry>
        </mxCell>
        <mxCell id="Yn_WXs409a5etzlrmCYC-51" value="HoraInicio" style="shape=partialRectangle;connectable=0;fillColor=none;top=0;left=0;bottom=0;right=0;align=left;spacingLeft=6;overflow=hidden;whiteSpace=wrap;html=1;strokeColor=#b85450;verticalAlign=middle;fontFamily=Helvetica;fontSize=12;fontColor=default;" parent="Yn_WXs409a5etzlrmCYC-49" vertex="1">
          <mxGeometry x="30" width="150" height="30" as="geometry">
            <mxRectangle width="150" height="30" as="alternateBounds" />
          </mxGeometry>
        </mxCell>
        <mxCell id="Yn_WXs409a5etzlrmCYC-52" value="" style="shape=tableRow;horizontal=0;startSize=0;swimlaneHead=0;swimlaneBody=0;fillColor=none;collapsible=0;dropTarget=0;points=[[0,0.5],[1,0.5]];portConstraint=eastwest;top=0;left=0;right=0;bottom=0;strokeColor=#b85450;align=center;verticalAlign=middle;fontFamily=Helvetica;fontSize=12;fontColor=default;" parent="Yn_WXs409a5etzlrmCYC-45" vertex="1">
          <mxGeometry y="90" width="180" height="30" as="geometry" />
        </mxCell>
        <mxCell id="Yn_WXs409a5etzlrmCYC-53" value="" style="shape=partialRectangle;connectable=0;fillColor=none;top=0;left=0;bottom=0;right=0;editable=1;overflow=hidden;whiteSpace=wrap;html=1;strokeColor=#b85450;align=center;verticalAlign=middle;fontFamily=Helvetica;fontSize=12;fontColor=default;" parent="Yn_WXs409a5etzlrmCYC-52" vertex="1">
          <mxGeometry width="30" height="30" as="geometry">
            <mxRectangle width="30" height="30" as="alternateBounds" />
          </mxGeometry>
        </mxCell>
        <mxCell id="Yn_WXs409a5etzlrmCYC-54" value="HoraFin" style="shape=partialRectangle;connectable=0;fillColor=none;top=0;left=0;bottom=0;right=0;align=left;spacingLeft=6;overflow=hidden;whiteSpace=wrap;html=1;strokeColor=#b85450;verticalAlign=middle;fontFamily=Helvetica;fontSize=12;fontColor=default;" parent="Yn_WXs409a5etzlrmCYC-52" vertex="1">
          <mxGeometry x="30" width="150" height="30" as="geometry">
            <mxRectangle width="150" height="30" as="alternateBounds" />
          </mxGeometry>
        </mxCell>
        <mxCell id="Yn_WXs409a5etzlrmCYC-58" value="" style="shape=tableRow;horizontal=0;startSize=0;swimlaneHead=0;swimlaneBody=0;fillColor=none;collapsible=0;dropTarget=0;points=[[0,0.5],[1,0.5]];portConstraint=eastwest;top=0;left=0;right=0;bottom=0;strokeColor=#b85450;align=center;verticalAlign=middle;fontFamily=Helvetica;fontSize=12;fontColor=default;" parent="Yn_WXs409a5etzlrmCYC-45" vertex="1">
          <mxGeometry y="120" width="180" height="30" as="geometry" />
        </mxCell>
        <mxCell id="Yn_WXs409a5etzlrmCYC-59" value="" style="shape=partialRectangle;connectable=0;fillColor=none;top=0;left=0;bottom=0;right=0;editable=1;overflow=hidden;whiteSpace=wrap;html=1;strokeColor=#b85450;align=center;verticalAlign=middle;fontFamily=Helvetica;fontSize=12;fontColor=default;" parent="Yn_WXs409a5etzlrmCYC-58" vertex="1">
          <mxGeometry width="30" height="30" as="geometry">
            <mxRectangle width="30" height="30" as="alternateBounds" />
          </mxGeometry>
        </mxCell>
        <mxCell id="Yn_WXs409a5etzlrmCYC-60" value="Día" style="shape=partialRectangle;connectable=0;fillColor=none;top=0;left=0;bottom=0;right=0;align=left;spacingLeft=6;overflow=hidden;whiteSpace=wrap;html=1;strokeColor=#b85450;verticalAlign=middle;fontFamily=Helvetica;fontSize=12;fontColor=default;" parent="Yn_WXs409a5etzlrmCYC-58" vertex="1">
          <mxGeometry x="30" width="150" height="30" as="geometry">
            <mxRectangle width="150" height="30" as="alternateBounds" />
          </mxGeometry>
        </mxCell>
        <mxCell id="Yn_WXs409a5etzlrmCYC-61" value="" style="shape=tableRow;horizontal=0;startSize=0;swimlaneHead=0;swimlaneBody=0;fillColor=none;collapsible=0;dropTarget=0;points=[[0,0.5],[1,0.5]];portConstraint=eastwest;top=0;left=0;right=0;bottom=0;strokeColor=#b85450;align=center;verticalAlign=middle;fontFamily=Helvetica;fontSize=12;fontColor=default;" parent="Yn_WXs409a5etzlrmCYC-45" vertex="1">
          <mxGeometry y="150" width="180" height="30" as="geometry" />
        </mxCell>
        <mxCell id="Yn_WXs409a5etzlrmCYC-62" value="&lt;div&gt;&lt;br&gt;&lt;/div&gt;" style="shape=partialRectangle;connectable=0;fillColor=none;top=0;left=0;bottom=0;right=0;editable=1;overflow=hidden;whiteSpace=wrap;html=1;strokeColor=#b85450;align=center;verticalAlign=middle;fontFamily=Helvetica;fontSize=12;fontColor=default;" parent="Yn_WXs409a5etzlrmCYC-61" vertex="1">
          <mxGeometry width="30" height="30" as="geometry">
            <mxRectangle width="30" height="30" as="alternateBounds" />
          </mxGeometry>
        </mxCell>
        <mxCell id="Yn_WXs409a5etzlrmCYC-63" value="Aula" style="shape=partialRectangle;connectable=0;fillColor=none;top=0;left=0;bottom=0;right=0;align=left;spacingLeft=6;overflow=hidden;whiteSpace=wrap;html=1;strokeColor=#b85450;verticalAlign=middle;fontFamily=Helvetica;fontSize=12;fontColor=default;" parent="Yn_WXs409a5etzlrmCYC-61" vertex="1">
          <mxGeometry x="30" width="150" height="30" as="geometry">
            <mxRectangle width="150" height="30" as="alternateBounds" />
          </mxGeometry>
        </mxCell>
        <mxCell id="Yn_WXs409a5etzlrmCYC-64" value="Estudiante" style="shape=table;startSize=30;container=1;collapsible=1;childLayout=tableLayout;fixedRows=1;rowLines=0;fontStyle=1;align=center;resizeLast=1;html=1;strokeColor=#b85450;verticalAlign=middle;fontFamily=Helvetica;fontSize=12;fontColor=default;fillColor=#f8cecc;" parent="IcJAFvXMcdlUpBERANjo-21" vertex="1">
          <mxGeometry x="780" y="570" width="180" height="90" as="geometry" />
        </mxCell>
        <mxCell id="Yn_WXs409a5etzlrmCYC-65" value="" style="shape=tableRow;horizontal=0;startSize=0;swimlaneHead=0;swimlaneBody=0;fillColor=none;collapsible=0;dropTarget=0;points=[[0,0.5],[1,0.5]];portConstraint=eastwest;top=0;left=0;right=0;bottom=1;strokeColor=#b85450;align=center;verticalAlign=middle;fontFamily=Helvetica;fontSize=12;fontColor=default;" parent="Yn_WXs409a5etzlrmCYC-64" vertex="1">
          <mxGeometry y="30" width="180" height="30" as="geometry" />
        </mxCell>
        <mxCell id="Yn_WXs409a5etzlrmCYC-66" value="PK" style="shape=partialRectangle;connectable=0;fillColor=none;top=0;left=0;bottom=0;right=0;fontStyle=1;overflow=hidden;whiteSpace=wrap;html=1;strokeColor=#b85450;align=center;verticalAlign=middle;fontFamily=Helvetica;fontSize=12;fontColor=default;" parent="Yn_WXs409a5etzlrmCYC-65" vertex="1">
          <mxGeometry width="30" height="30" as="geometry">
            <mxRectangle width="30" height="30" as="alternateBounds" />
          </mxGeometry>
        </mxCell>
        <mxCell id="Yn_WXs409a5etzlrmCYC-67" value="idUsuario" style="shape=partialRectangle;connectable=0;fillColor=none;top=0;left=0;bottom=0;right=0;align=left;spacingLeft=6;fontStyle=5;overflow=hidden;whiteSpace=wrap;html=1;strokeColor=#b85450;verticalAlign=middle;fontFamily=Helvetica;fontSize=12;fontColor=default;" parent="Yn_WXs409a5etzlrmCYC-65" vertex="1">
          <mxGeometry x="30" width="150" height="30" as="geometry">
            <mxRectangle width="150" height="30" as="alternateBounds" />
          </mxGeometry>
        </mxCell>
        <mxCell id="Yn_WXs409a5etzlrmCYC-68" value="" style="shape=tableRow;horizontal=0;startSize=0;swimlaneHead=0;swimlaneBody=0;fillColor=none;collapsible=0;dropTarget=0;points=[[0,0.5],[1,0.5]];portConstraint=eastwest;top=0;left=0;right=0;bottom=0;strokeColor=#b85450;align=center;verticalAlign=middle;fontFamily=Helvetica;fontSize=12;fontColor=default;" parent="Yn_WXs409a5etzlrmCYC-64" vertex="1">
          <mxGeometry y="60" width="180" height="30" as="geometry" />
        </mxCell>
        <mxCell id="Yn_WXs409a5etzlrmCYC-69" value="" style="shape=partialRectangle;connectable=0;fillColor=none;top=0;left=0;bottom=0;right=0;editable=1;overflow=hidden;whiteSpace=wrap;html=1;strokeColor=#b85450;align=center;verticalAlign=middle;fontFamily=Helvetica;fontSize=12;fontColor=default;" parent="Yn_WXs409a5etzlrmCYC-68" vertex="1">
          <mxGeometry width="30" height="30" as="geometry">
            <mxRectangle width="30" height="30" as="alternateBounds" />
          </mxGeometry>
        </mxCell>
        <mxCell id="Yn_WXs409a5etzlrmCYC-70" value="Nº_matricula" style="shape=partialRectangle;connectable=0;fillColor=none;top=0;left=0;bottom=0;right=0;align=left;spacingLeft=6;overflow=hidden;whiteSpace=wrap;html=1;strokeColor=#b85450;verticalAlign=middle;fontFamily=Helvetica;fontSize=12;fontColor=default;" parent="Yn_WXs409a5etzlrmCYC-68" vertex="1">
          <mxGeometry x="30" width="150" height="30" as="geometry">
            <mxRectangle width="150" height="30" as="alternateBounds" />
          </mxGeometry>
        </mxCell>
        <mxCell id="Yn_WXs409a5etzlrmCYC-77" value="Administrador" style="shape=table;startSize=20;container=1;collapsible=1;childLayout=tableLayout;fixedRows=1;rowLines=0;fontStyle=1;align=center;resizeLast=1;html=1;strokeColor=#b85450;verticalAlign=middle;fontFamily=Helvetica;fontSize=12;fontColor=default;fillColor=#f8cecc;" parent="IcJAFvXMcdlUpBERANjo-21" vertex="1">
          <mxGeometry x="1140" y="570" width="180" height="90" as="geometry" />
        </mxCell>
        <mxCell id="Yn_WXs409a5etzlrmCYC-78" value="" style="shape=tableRow;horizontal=0;startSize=0;swimlaneHead=0;swimlaneBody=0;fillColor=none;collapsible=0;dropTarget=0;points=[[0,0.5],[1,0.5]];portConstraint=eastwest;top=0;left=0;right=0;bottom=1;strokeColor=#b85450;align=center;verticalAlign=middle;fontFamily=Helvetica;fontSize=12;fontColor=default;" parent="Yn_WXs409a5etzlrmCYC-77" vertex="1">
          <mxGeometry y="20" width="180" height="30" as="geometry" />
        </mxCell>
        <mxCell id="Yn_WXs409a5etzlrmCYC-79" value="PK" style="shape=partialRectangle;connectable=0;fillColor=none;top=0;left=0;bottom=0;right=0;fontStyle=1;overflow=hidden;whiteSpace=wrap;html=1;strokeColor=#b85450;align=center;verticalAlign=middle;fontFamily=Helvetica;fontSize=12;fontColor=default;" parent="Yn_WXs409a5etzlrmCYC-78" vertex="1">
          <mxGeometry width="30" height="30" as="geometry">
            <mxRectangle width="30" height="30" as="alternateBounds" />
          </mxGeometry>
        </mxCell>
        <mxCell id="Yn_WXs409a5etzlrmCYC-80" value="idUsuario" style="shape=partialRectangle;connectable=0;fillColor=none;top=0;left=0;bottom=0;right=0;align=left;spacingLeft=6;fontStyle=5;overflow=hidden;whiteSpace=wrap;html=1;strokeColor=#b85450;verticalAlign=middle;fontFamily=Helvetica;fontSize=12;fontColor=default;" parent="Yn_WXs409a5etzlrmCYC-78" vertex="1">
          <mxGeometry x="30" width="150" height="30" as="geometry">
            <mxRectangle width="150" height="30" as="alternateBounds" />
          </mxGeometry>
        </mxCell>
        <mxCell id="Yn_WXs409a5etzlrmCYC-81" value="" style="shape=tableRow;horizontal=0;startSize=0;swimlaneHead=0;swimlaneBody=0;fillColor=none;collapsible=0;dropTarget=0;points=[[0,0.5],[1,0.5]];portConstraint=eastwest;top=0;left=0;right=0;bottom=0;strokeColor=#b85450;align=center;verticalAlign=middle;fontFamily=Helvetica;fontSize=12;fontColor=default;" parent="Yn_WXs409a5etzlrmCYC-77" vertex="1">
          <mxGeometry y="50" width="180" height="30" as="geometry" />
        </mxCell>
        <mxCell id="Yn_WXs409a5etzlrmCYC-82" value="" style="shape=partialRectangle;connectable=0;fillColor=none;top=0;left=0;bottom=0;right=0;editable=1;overflow=hidden;whiteSpace=wrap;html=1;strokeColor=#b85450;align=center;verticalAlign=middle;fontFamily=Helvetica;fontSize=12;fontColor=default;" parent="Yn_WXs409a5etzlrmCYC-81" vertex="1">
          <mxGeometry width="30" height="30" as="geometry">
            <mxRectangle width="30" height="30" as="alternateBounds" />
          </mxGeometry>
        </mxCell>
        <mxCell id="Yn_WXs409a5etzlrmCYC-83" value="" style="shape=partialRectangle;connectable=0;fillColor=none;top=0;left=0;bottom=0;right=0;align=left;spacingLeft=6;overflow=hidden;whiteSpace=wrap;html=1;strokeColor=#b85450;verticalAlign=middle;fontFamily=Helvetica;fontSize=12;fontColor=default;" parent="Yn_WXs409a5etzlrmCYC-81" vertex="1">
          <mxGeometry x="30" width="150" height="30" as="geometry">
            <mxRectangle width="150" height="30" as="alternateBounds" />
          </mxGeometry>
        </mxCell>
        <mxCell id="Yn_WXs409a5etzlrmCYC-90" value="" style="endArrow=none;html=1;rounded=0;fontFamily=Helvetica;fontSize=12;fontColor=default;exitX=0.5;exitY=0;exitDx=0;exitDy=0;entryX=1;entryY=0.5;entryDx=0;entryDy=0;" parent="IcJAFvXMcdlUpBERANjo-21" source="Yn_WXs409a5etzlrmCYC-64" target="IcJAFvXMcdlUpBERANjo-0" edge="1">
          <mxGeometry width="50" height="50" relative="1" as="geometry">
            <mxPoint x="770" y="620" as="sourcePoint" />
            <mxPoint x="1050" y="450" as="targetPoint" />
          </mxGeometry>
        </mxCell>
        <mxCell id="Yn_WXs409a5etzlrmCYC-91" value="" style="endArrow=none;html=1;rounded=0;fontFamily=Helvetica;fontSize=12;fontColor=default;entryX=1;entryY=0.5;entryDx=0;entryDy=0;exitX=0.5;exitY=0;exitDx=0;exitDy=0;" parent="IcJAFvXMcdlUpBERANjo-21" source="Yn_WXs409a5etzlrmCYC-77" target="IcJAFvXMcdlUpBERANjo-0" edge="1">
          <mxGeometry width="50" height="50" relative="1" as="geometry">
            <mxPoint x="1049.5" y="620" as="sourcePoint" />
            <mxPoint x="1050.44" y="449.5500000000002" as="targetPoint" />
          </mxGeometry>
        </mxCell>
        <mxCell id="Yn_WXs409a5etzlrmCYC-96" value="&lt;font style=&quot;color: rgb(255, 0, 0);&quot;&gt;M&lt;/font&gt;" style="text;html=1;align=center;verticalAlign=middle;resizable=0;points=[];autosize=1;strokeColor=none;fillColor=none;fontFamily=Helvetica;fontSize=12;fontColor=default;" parent="IcJAFvXMcdlUpBERANjo-21" vertex="1">
          <mxGeometry x="750" y="660" width="30" height="30" as="geometry" />
        </mxCell>
        <mxCell id="Yn_WXs409a5etzlrmCYC-97" value="&lt;font color=&quot;#ff3333&quot;&gt;N&lt;/font&gt;" style="text;html=1;align=center;verticalAlign=middle;resizable=0;points=[];autosize=1;strokeColor=none;fillColor=none;fontFamily=Helvetica;fontSize=12;fontColor=default;" parent="IcJAFvXMcdlUpBERANjo-21" vertex="1">
          <mxGeometry x="740" y="890" width="30" height="30" as="geometry" />
        </mxCell>
        <mxCell id="Yn_WXs409a5etzlrmCYC-99" value="&lt;font style=&quot;color: rgb(255, 0, 0);&quot;&gt;M&lt;/font&gt;" style="text;html=1;align=center;verticalAlign=middle;resizable=0;points=[];autosize=1;strokeColor=none;fillColor=none;fontFamily=Helvetica;fontSize=12;fontColor=default;" parent="IcJAFvXMcdlUpBERANjo-21" vertex="1">
          <mxGeometry x="615" y="930" width="30" height="30" as="geometry" />
        </mxCell>
        <mxCell id="gWmofwAnsoPhRGkEBss_-17" value="Profesor" style="shape=table;startSize=30;container=1;collapsible=1;childLayout=tableLayout;fixedRows=1;rowLines=0;fontStyle=1;align=center;resizeLast=1;html=1;strokeColor=#b85450;verticalAlign=middle;fontFamily=Helvetica;fontSize=12;fontColor=default;fillColor=#f8cecc;" parent="IcJAFvXMcdlUpBERANjo-21" vertex="1">
          <mxGeometry x="40" y="1100" width="180" height="150" as="geometry" />
        </mxCell>
        <mxCell id="gWmofwAnsoPhRGkEBss_-18" value="" style="shape=tableRow;horizontal=0;startSize=0;swimlaneHead=0;swimlaneBody=0;fillColor=none;collapsible=0;dropTarget=0;points=[[0,0.5],[1,0.5]];portConstraint=eastwest;top=0;left=0;right=0;bottom=1;strokeColor=#b85450;align=center;verticalAlign=middle;fontFamily=Helvetica;fontSize=12;fontColor=default;" parent="gWmofwAnsoPhRGkEBss_-17" vertex="1">
          <mxGeometry y="30" width="180" height="30" as="geometry" />
        </mxCell>
        <mxCell id="gWmofwAnsoPhRGkEBss_-19" value="PK" style="shape=partialRectangle;connectable=0;fillColor=none;top=0;left=0;bottom=0;right=0;fontStyle=1;overflow=hidden;whiteSpace=wrap;html=1;strokeColor=#b85450;align=center;verticalAlign=middle;fontFamily=Helvetica;fontSize=12;fontColor=default;" parent="gWmofwAnsoPhRGkEBss_-18" vertex="1">
          <mxGeometry width="30" height="30" as="geometry">
            <mxRectangle width="30" height="30" as="alternateBounds" />
          </mxGeometry>
        </mxCell>
        <mxCell id="gWmofwAnsoPhRGkEBss_-20" value="IdProfesor" style="shape=partialRectangle;connectable=0;fillColor=none;top=0;left=0;bottom=0;right=0;align=left;spacingLeft=6;fontStyle=5;overflow=hidden;whiteSpace=wrap;html=1;strokeColor=#b85450;verticalAlign=middle;fontFamily=Helvetica;fontSize=12;fontColor=default;" parent="gWmofwAnsoPhRGkEBss_-18" vertex="1">
          <mxGeometry x="30" width="150" height="30" as="geometry">
            <mxRectangle width="150" height="30" as="alternateBounds" />
          </mxGeometry>
        </mxCell>
        <mxCell id="gWmofwAnsoPhRGkEBss_-24" value="" style="shape=tableRow;horizontal=0;startSize=0;swimlaneHead=0;swimlaneBody=0;fillColor=none;collapsible=0;dropTarget=0;points=[[0,0.5],[1,0.5]];portConstraint=eastwest;top=0;left=0;right=0;bottom=0;strokeColor=#b85450;align=center;verticalAlign=middle;fontFamily=Helvetica;fontSize=12;fontColor=default;" parent="gWmofwAnsoPhRGkEBss_-17" vertex="1">
          <mxGeometry y="60" width="180" height="30" as="geometry" />
        </mxCell>
        <mxCell id="gWmofwAnsoPhRGkEBss_-25" value="" style="shape=partialRectangle;connectable=0;fillColor=none;top=0;left=0;bottom=0;right=0;editable=1;overflow=hidden;whiteSpace=wrap;html=1;strokeColor=#b85450;align=center;verticalAlign=middle;fontFamily=Helvetica;fontSize=12;fontColor=default;" parent="gWmofwAnsoPhRGkEBss_-24" vertex="1">
          <mxGeometry width="30" height="30" as="geometry">
            <mxRectangle width="30" height="30" as="alternateBounds" />
          </mxGeometry>
        </mxCell>
        <mxCell id="gWmofwAnsoPhRGkEBss_-26" value="Nombre" style="shape=partialRectangle;connectable=0;fillColor=none;top=0;left=0;bottom=0;right=0;align=left;spacingLeft=6;overflow=hidden;whiteSpace=wrap;html=1;strokeColor=#b85450;verticalAlign=middle;fontFamily=Helvetica;fontSize=12;fontColor=default;" parent="gWmofwAnsoPhRGkEBss_-24" vertex="1">
          <mxGeometry x="30" width="150" height="30" as="geometry">
            <mxRectangle width="150" height="30" as="alternateBounds" />
          </mxGeometry>
        </mxCell>
        <mxCell id="gWmofwAnsoPhRGkEBss_-27" value="" style="shape=tableRow;horizontal=0;startSize=0;swimlaneHead=0;swimlaneBody=0;fillColor=none;collapsible=0;dropTarget=0;points=[[0,0.5],[1,0.5]];portConstraint=eastwest;top=0;left=0;right=0;bottom=0;strokeColor=#b85450;align=center;verticalAlign=middle;fontFamily=Helvetica;fontSize=12;fontColor=default;" parent="gWmofwAnsoPhRGkEBss_-17" vertex="1">
          <mxGeometry y="90" width="180" height="30" as="geometry" />
        </mxCell>
        <mxCell id="gWmofwAnsoPhRGkEBss_-28" value="" style="shape=partialRectangle;connectable=0;fillColor=none;top=0;left=0;bottom=0;right=0;editable=1;overflow=hidden;whiteSpace=wrap;html=1;strokeColor=#b85450;align=center;verticalAlign=middle;fontFamily=Helvetica;fontSize=12;fontColor=default;" parent="gWmofwAnsoPhRGkEBss_-27" vertex="1">
          <mxGeometry width="30" height="30" as="geometry">
            <mxRectangle width="30" height="30" as="alternateBounds" />
          </mxGeometry>
        </mxCell>
        <mxCell id="gWmofwAnsoPhRGkEBss_-29" value="Apellidos" style="shape=partialRectangle;connectable=0;fillColor=none;top=0;left=0;bottom=0;right=0;align=left;spacingLeft=6;overflow=hidden;whiteSpace=wrap;html=1;strokeColor=#b85450;verticalAlign=middle;fontFamily=Helvetica;fontSize=12;fontColor=default;" parent="gWmofwAnsoPhRGkEBss_-27" vertex="1">
          <mxGeometry x="30" width="150" height="30" as="geometry">
            <mxRectangle width="150" height="30" as="alternateBounds" />
          </mxGeometry>
        </mxCell>
        <mxCell id="gWmofwAnsoPhRGkEBss_-21" value="" style="shape=tableRow;horizontal=0;startSize=0;swimlaneHead=0;swimlaneBody=0;fillColor=none;collapsible=0;dropTarget=0;points=[[0,0.5],[1,0.5]];portConstraint=eastwest;top=0;left=0;right=0;bottom=0;strokeColor=#b85450;align=center;verticalAlign=middle;fontFamily=Helvetica;fontSize=12;fontColor=default;" parent="gWmofwAnsoPhRGkEBss_-17" vertex="1">
          <mxGeometry y="120" width="180" height="30" as="geometry" />
        </mxCell>
        <mxCell id="gWmofwAnsoPhRGkEBss_-22" value="" style="shape=partialRectangle;connectable=0;fillColor=none;top=0;left=0;bottom=0;right=0;editable=1;overflow=hidden;whiteSpace=wrap;html=1;strokeColor=#b85450;align=center;verticalAlign=middle;fontFamily=Helvetica;fontSize=12;fontColor=default;" parent="gWmofwAnsoPhRGkEBss_-21" vertex="1">
          <mxGeometry width="30" height="30" as="geometry">
            <mxRectangle width="30" height="30" as="alternateBounds" />
          </mxGeometry>
        </mxCell>
        <mxCell id="gWmofwAnsoPhRGkEBss_-23" value="email" style="shape=partialRectangle;connectable=0;fillColor=none;top=0;left=0;bottom=0;right=0;align=left;spacingLeft=6;overflow=hidden;whiteSpace=wrap;html=1;strokeColor=#b85450;verticalAlign=middle;fontFamily=Helvetica;fontSize=12;fontColor=default;" parent="gWmofwAnsoPhRGkEBss_-21" vertex="1">
          <mxGeometry x="30" width="150" height="30" as="geometry">
            <mxRectangle width="150" height="30" as="alternateBounds" />
          </mxGeometry>
        </mxCell>
        <mxCell id="uocuBpoWuZLB5lscc0YK-22" value="&lt;font style=&quot;color: rgb(255, 51, 51);&quot;&gt;0&lt;/font&gt;" style="text;html=1;align=center;verticalAlign=middle;resizable=0;points=[];autosize=1;strokeColor=none;fillColor=none;" parent="IcJAFvXMcdlUpBERANjo-21" vertex="1">
          <mxGeometry x="310" y="720" width="30" height="30" as="geometry" />
        </mxCell>
        <mxCell id="IcJAFvXMcdlUpBERANjo-0" value="" style="triangle;whiteSpace=wrap;html=1;rotation=90;fillColor=#dae8fc;strokeColor=#6c8ebf;" parent="IcJAFvXMcdlUpBERANjo-21" vertex="1">
          <mxGeometry x="1020" y="380" width="60" height="80" as="geometry" />
        </mxCell>
        <mxCell id="IcJAFvXMcdlUpBERANjo-1" value="Tipo" style="text;html=1;align=center;verticalAlign=middle;resizable=0;points=[];autosize=1;strokeColor=none;fillColor=none;" parent="IcJAFvXMcdlUpBERANjo-21" vertex="1">
          <mxGeometry x="1025" y="390" width="50" height="30" as="geometry" />
        </mxCell>
        <mxCell id="IcJAFvXMcdlUpBERANjo-2" value="" style="endArrow=none;html=1;rounded=0;entryX=0.5;entryY=0.991;entryDx=0;entryDy=0;entryPerimeter=0;exitX=0;exitY=0.5;exitDx=0;exitDy=0;" parent="IcJAFvXMcdlUpBERANjo-21" source="IcJAFvXMcdlUpBERANjo-0" target="uocuBpoWuZLB5lscc0YK-18" edge="1">
          <mxGeometry width="50" height="50" relative="1" as="geometry">
            <mxPoint x="880" y="490" as="sourcePoint" />
            <mxPoint x="930" y="440" as="targetPoint" />
          </mxGeometry>
        </mxCell>
        <mxCell id="IcJAFvXMcdlUpBERANjo-3" value="" style="endArrow=none;html=1;rounded=0;entryX=-0.001;entryY=0.978;entryDx=0;entryDy=0;exitX=0.5;exitY=0;exitDx=0;exitDy=0;entryPerimeter=0;" parent="IcJAFvXMcdlUpBERANjo-21" source="Yn_WXs409a5etzlrmCYC-32" target="Yn_WXs409a5etzlrmCYC-68" edge="1">
          <mxGeometry width="50" height="50" relative="1" as="geometry">
            <mxPoint x="530" y="740" as="sourcePoint" />
            <mxPoint x="580" y="690" as="targetPoint" />
          </mxGeometry>
        </mxCell>
        <mxCell id="Yn_WXs409a5etzlrmCYC-94" value="Cursa" style="shape=rhombus;perimeter=rhombusPerimeter;whiteSpace=wrap;html=1;align=center;strokeColor=#82b366;verticalAlign=middle;fontFamily=Helvetica;fontSize=12;fillColor=#d5e8d4;" parent="IcJAFvXMcdlUpBERANjo-21" vertex="1">
          <mxGeometry x="695" y="750" width="120" height="60" as="geometry" />
        </mxCell>
        <mxCell id="IcJAFvXMcdlUpBERANjo-6" value="" style="endArrow=none;html=1;rounded=0;entryX=1;entryY=0.5;entryDx=0;entryDy=0;exitX=0.001;exitY=0.094;exitDx=0;exitDy=0;exitPerimeter=0;" parent="IcJAFvXMcdlUpBERANjo-21" source="Yn_WXs409a5etzlrmCYC-32" target="Yn_WXs409a5etzlrmCYC-17" edge="1">
          <mxGeometry width="50" height="50" relative="1" as="geometry">
            <mxPoint x="340" y="1030" as="sourcePoint" />
            <mxPoint x="390" y="980" as="targetPoint" />
          </mxGeometry>
        </mxCell>
        <mxCell id="Yn_WXs409a5etzlrmCYC-101" value="Pertenece" style="shape=rhombus;perimeter=rhombusPerimeter;whiteSpace=wrap;html=1;align=center;strokeColor=#82b366;verticalAlign=middle;fontFamily=Helvetica;fontSize=12;fillColor=#d5e8d4;" parent="IcJAFvXMcdlUpBERANjo-21" vertex="1">
          <mxGeometry x="410" y="790" width="120" height="60" as="geometry" />
        </mxCell>
        <mxCell id="IcJAFvXMcdlUpBERANjo-7" value="" style="endArrow=none;html=1;rounded=0;entryX=0;entryY=0.5;entryDx=0;entryDy=0;exitX=0.998;exitY=0.21;exitDx=0;exitDy=0;exitPerimeter=0;" parent="IcJAFvXMcdlUpBERANjo-21" source="gWmofwAnsoPhRGkEBss_-17" target="Yn_WXs409a5etzlrmCYC-104" edge="1">
          <mxGeometry width="50" height="50" relative="1" as="geometry">
            <mxPoint x="620" y="1310" as="sourcePoint" />
            <mxPoint x="670" y="1260" as="targetPoint" />
          </mxGeometry>
        </mxCell>
        <mxCell id="IcJAFvXMcdlUpBERANjo-8" value="Imparte" style="shape=rhombus;perimeter=rhombusPerimeter;whiteSpace=wrap;html=1;align=center;fillColor=#d5e8d4;strokeColor=#82b366;" parent="IcJAFvXMcdlUpBERANjo-21" vertex="1">
          <mxGeometry x="380" y="1028" width="120" height="60" as="geometry" />
        </mxCell>
        <mxCell id="IcJAFvXMcdlUpBERANjo-12" value="&lt;font color=&quot;#ff0000&quot;&gt;0&lt;/font&gt;" style="text;html=1;align=center;verticalAlign=middle;resizable=0;points=[];autosize=1;strokeColor=none;fillColor=none;" parent="IcJAFvXMcdlUpBERANjo-21" vertex="1">
          <mxGeometry x="217" y="1100" width="30" height="30" as="geometry" />
        </mxCell>
        <mxCell id="IcJAFvXMcdlUpBERANjo-13" value="&lt;font color=&quot;#ff0000&quot;&gt;N&lt;/font&gt;" style="text;html=1;align=center;verticalAlign=middle;resizable=0;points=[];autosize=1;strokeColor=none;fillColor=none;" parent="IcJAFvXMcdlUpBERANjo-21" vertex="1">
          <mxGeometry x="615" y="970" width="30" height="30" as="geometry" />
        </mxCell>
        <mxCell id="IcJAFvXMcdlUpBERANjo-16" value="" style="endArrow=none;html=1;rounded=0;entryX=0;entryY=0.5;entryDx=0;entryDy=0;exitX=1;exitY=0.5;exitDx=0;exitDy=0;" parent="IcJAFvXMcdlUpBERANjo-21" source="IcJAFvXMcdlUpBERANjo-15" target="Yn_WXs409a5etzlrmCYC-46" edge="1">
          <mxGeometry width="50" height="50" relative="1" as="geometry">
            <mxPoint x="960" y="1000" as="sourcePoint" />
            <mxPoint x="1010" y="950" as="targetPoint" />
          </mxGeometry>
        </mxCell>
        <mxCell id="IcJAFvXMcdlUpBERANjo-17" value="" style="endArrow=none;html=1;rounded=0;entryX=0;entryY=0.5;entryDx=0;entryDy=0;exitX=1;exitY=0.5;exitDx=0;exitDy=0;" parent="IcJAFvXMcdlUpBERANjo-21" source="Yn_WXs409a5etzlrmCYC-33" target="IcJAFvXMcdlUpBERANjo-15" edge="1">
          <mxGeometry width="50" height="50" relative="1" as="geometry">
            <mxPoint x="825" y="965" as="sourcePoint" />
            <mxPoint x="1130" y="965" as="targetPoint" />
          </mxGeometry>
        </mxCell>
        <mxCell id="IcJAFvXMcdlUpBERANjo-15" value="consta" style="shape=rhombus;perimeter=rhombusPerimeter;whiteSpace=wrap;html=1;align=center;fillColor=#d5e8d4;strokeColor=#82b366;" parent="IcJAFvXMcdlUpBERANjo-21" vertex="1">
          <mxGeometry x="924" y="935" width="120" height="60" as="geometry" />
        </mxCell>
        <mxCell id="IcJAFvXMcdlUpBERANjo-18" value="&lt;font color=&quot;#ff0000&quot;&gt;M&lt;/font&gt;" style="text;html=1;align=center;verticalAlign=middle;resizable=0;points=[];autosize=1;strokeColor=none;fillColor=none;" parent="IcJAFvXMcdlUpBERANjo-21" vertex="1">
          <mxGeometry x="1100" y="935" width="30" height="30" as="geometry" />
        </mxCell>
        <mxCell id="IcJAFvXMcdlUpBERANjo-19" value="&lt;font color=&quot;#ff0000&quot;&gt;0&lt;/font&gt;" style="text;html=1;align=center;verticalAlign=middle;resizable=0;points=[];autosize=1;strokeColor=none;fillColor=none;" parent="IcJAFvXMcdlUpBERANjo-21" vertex="1">
          <mxGeometry x="815" y="938" width="30" height="30" as="geometry" />
        </mxCell>
        <mxCell id="PNOjumnexGEibMNlzpDn-0" value="" style="rounded=0;whiteSpace=wrap;html=1;fillColor=#ffe6cc;strokeColor=#000000;" vertex="1" parent="WIyWlLk6GJQsqaUBKTNV-1">
          <mxGeometry x="710" y="3350" width="630" height="720" as="geometry" />
        </mxCell>
        <mxCell id="PNOjumnexGEibMNlzpDn-1" value="Estudiante:&lt;u style=&quot;border-color: var(--border-color); color: rgb(255, 0, 0);&quot;&gt;&lt;i style=&quot;border-color: var(--border-color);&quot;&gt;idusuario&lt;/i&gt;&lt;/u&gt;,&lt;span style=&quot;border-color: var(--border-color); color: rgb(255, 0, 0);&quot;&gt;&amp;nbsp;&lt;/span&gt;Nº_matricula" style="text;html=1;strokeColor=#9673a6;fillColor=#e1d5e7;align=left;verticalAlign=middle;whiteSpace=wrap;rounded=0;container=0;" vertex="1" parent="WIyWlLk6GJQsqaUBKTNV-1">
          <mxGeometry x="757.5" y="3580" width="535" height="30" as="geometry" />
        </mxCell>
        <mxCell id="PNOjumnexGEibMNlzpDn-2" value="Usuario:&amp;nbsp;&lt;font color=&quot;#ff0000&quot;&gt;&lt;u&gt;idusuario&lt;/u&gt;&lt;/font&gt;, loginName, password,&amp;nbsp; fullName, email" style="text;html=1;strokeColor=#9673a6;fillColor=#e1d5e7;align=left;verticalAlign=middle;whiteSpace=wrap;rounded=0;container=0;" vertex="1" parent="WIyWlLk6GJQsqaUBKTNV-1">
          <mxGeometry x="757.5" y="3405" width="535" height="30" as="geometry" />
        </mxCell>
        <mxCell id="PNOjumnexGEibMNlzpDn-3" value="Cursa:&lt;u style=&quot;border-color: var(--border-color); color: rgb(255, 0, 0);&quot;&gt;&lt;i style=&quot;border-color: var(--border-color);&quot;&gt;idusuario&lt;/i&gt;&lt;/u&gt;,&amp;nbsp;&lt;u style=&quot;border-color: var(--border-color); color: rgb(255, 0, 0);&quot;&gt;&lt;i&gt;IdModulo&lt;/i&gt;&lt;/u&gt;&amp;nbsp;" style="text;html=1;strokeColor=#9673a6;fillColor=#e1d5e7;align=left;verticalAlign=middle;whiteSpace=wrap;rounded=0;container=0;" vertex="1" parent="WIyWlLk6GJQsqaUBKTNV-1">
          <mxGeometry x="757.5" y="3665" width="535" height="30" as="geometry" />
        </mxCell>
        <mxCell id="PNOjumnexGEibMNlzpDn-4" value="Profesor:&amp;nbsp;&lt;span style=&quot;border-color: var(--border-color); color: rgb(255, 0, 0);&quot;&gt;&lt;u&gt;idProfesor&lt;/u&gt;&lt;/span&gt;, nombre, apellidos, email&amp;nbsp;" style="text;html=1;strokeColor=#9673a6;fillColor=#e1d5e7;align=left;verticalAlign=middle;whiteSpace=wrap;rounded=0;container=0;" vertex="1" parent="WIyWlLk6GJQsqaUBKTNV-1">
          <mxGeometry x="757.5" y="3830" width="535" height="30" as="geometry" />
        </mxCell>
        <mxCell id="PNOjumnexGEibMNlzpDn-6" value="Ciclo:&amp;nbsp;&lt;font style=&quot;&quot; color=&quot;#ff0000&quot;&gt;&lt;u&gt;codCiclo&lt;/u&gt;&lt;/font&gt;, nombre, familiaProfesional" style="text;html=1;strokeColor=#9673a6;fillColor=#e1d5e7;align=left;verticalAlign=middle;whiteSpace=wrap;rounded=0;container=0;" vertex="1" parent="WIyWlLk6GJQsqaUBKTNV-1">
          <mxGeometry x="757.5" y="4005" width="535" height="30" as="geometry" />
        </mxCell>
        <mxCell id="PNOjumnexGEibMNlzpDn-7" value="Sesion:&lt;u style=&quot;border-color: var(--border-color); color: rgb(255, 0, 0);&quot;&gt;IdSesion&lt;/u&gt;, horaInicio, horafin, dia, aula, &lt;font color=&quot;#ff0000&quot;&gt;&lt;i&gt;idModulo&lt;/i&gt;&lt;/font&gt;" style="text;html=1;strokeColor=#9673a6;fillColor=#e1d5e7;align=left;verticalAlign=middle;whiteSpace=wrap;rounded=0;container=0;" vertex="1" parent="WIyWlLk6GJQsqaUBKTNV-1">
          <mxGeometry x="757.5" y="3910" width="535" height="30" as="geometry" />
        </mxCell>
        <mxCell id="PNOjumnexGEibMNlzpDn-19" value="Administrador:&amp;nbsp;&lt;u style=&quot;border-color: var(--border-color); color: rgb(255, 0, 0);&quot;&gt;&lt;i style=&quot;border-color: var(--border-color);&quot;&gt;idusuario&lt;/i&gt;&lt;/u&gt;" style="text;html=1;strokeColor=#9673a6;fillColor=#e1d5e7;align=left;verticalAlign=middle;whiteSpace=wrap;rounded=0;container=0;" vertex="1" parent="WIyWlLk6GJQsqaUBKTNV-1">
          <mxGeometry x="757.5" y="3495" width="535" height="30" as="geometry" />
        </mxCell>
        <mxCell id="PNOjumnexGEibMNlzpDn-22" value="Modulo:&lt;font style=&quot;&quot; color=&quot;#ff0000&quot;&gt;&lt;u&gt;IdModulo&lt;/u&gt;&lt;/font&gt;, codigo, nombre, horas_semana, horas_totales, &lt;i style=&quot;&quot;&gt;&lt;font color=&quot;#ff0000&quot;&gt;idProfesor&lt;/font&gt;,&lt;font color=&quot;#ff0000&quot;&gt;&amp;nbsp;&lt;/font&gt;&lt;/i&gt;&lt;span style=&quot;border-color: var(--border-color); color: rgb(255, 0, 0);&quot;&gt;codCiclo&lt;/span&gt;" style="text;html=1;strokeColor=#9673a6;fillColor=#e1d5e7;align=left;verticalAlign=middle;whiteSpace=wrap;rounded=0;container=0;" vertex="1" parent="WIyWlLk6GJQsqaUBKTNV-1">
          <mxGeometry x="757.5" y="3745" width="535" height="30" as="geometry" />
        </mxCell>
        <mxCell id="PNOjumnexGEibMNlzpDn-57" value="&lt;font color=&quot;#6600cc&quot;&gt;B:C, M:C&lt;/font&gt;" style="text;html=1;strokeColor=none;fillColor=none;align=center;verticalAlign=middle;whiteSpace=wrap;rounded=0;container=0;" vertex="1" parent="WIyWlLk6GJQsqaUBKTNV-1">
          <mxGeometry x="787.5" y="3540" width="60" height="30" as="geometry" />
        </mxCell>
        <mxCell id="PNOjumnexGEibMNlzpDn-82" value="&lt;font color=&quot;#6600cc&quot;&gt;B:R, M:C&lt;/font&gt;" style="text;html=1;strokeColor=none;fillColor=none;align=center;verticalAlign=middle;whiteSpace=wrap;rounded=0;container=0;" vertex="1" parent="WIyWlLk6GJQsqaUBKTNV-1">
          <mxGeometry x="757.5" y="3615" width="60" height="30" as="geometry" />
        </mxCell>
        <mxCell id="PNOjumnexGEibMNlzpDn-86" value="" style="endArrow=classic;html=1;rounded=0;entryX=0;entryY=0.5;entryDx=0;entryDy=0;exitX=0.155;exitY=-0.007;exitDx=0;exitDy=0;exitPerimeter=0;strokeColor=#0cb300;" edge="1" parent="WIyWlLk6GJQsqaUBKTNV-1" source="PNOjumnexGEibMNlzpDn-19" target="PNOjumnexGEibMNlzpDn-2">
          <mxGeometry width="50" height="50" relative="1" as="geometry">
            <mxPoint x="992.5" y="3600" as="sourcePoint" />
            <mxPoint x="1042.5" y="3550" as="targetPoint" />
            <Array as="points">
              <mxPoint x="840.5" y="3470" />
              <mxPoint x="732.5" y="3470" />
              <mxPoint x="732.5" y="3420" />
            </Array>
          </mxGeometry>
        </mxCell>
        <mxCell id="PNOjumnexGEibMNlzpDn-88" value="" style="endArrow=none;html=1;rounded=0;exitX=0.178;exitY=-0.015;exitDx=0;exitDy=0;exitPerimeter=0;strokeColor=#0cb300;" edge="1" parent="WIyWlLk6GJQsqaUBKTNV-1" source="PNOjumnexGEibMNlzpDn-1">
          <mxGeometry width="50" height="50" relative="1" as="geometry">
            <mxPoint x="832.5" y="3650" as="sourcePoint" />
            <mxPoint x="732.5" y="3470" as="targetPoint" />
            <Array as="points">
              <mxPoint x="852.5" y="3560" />
              <mxPoint x="732.5" y="3560" />
            </Array>
          </mxGeometry>
        </mxCell>
        <mxCell id="PNOjumnexGEibMNlzpDn-92" value="&lt;font color=&quot;#6600cc&quot;&gt;B:C, M:C&lt;/font&gt;" style="text;html=1;strokeColor=none;fillColor=none;align=center;verticalAlign=middle;whiteSpace=wrap;rounded=0;container=0;" vertex="1" parent="WIyWlLk6GJQsqaUBKTNV-1">
          <mxGeometry x="787.5" y="3450" width="60" height="30" as="geometry" />
        </mxCell>
        <mxCell id="PNOjumnexGEibMNlzpDn-93" value="" style="endArrow=none;html=1;rounded=0;exitX=0.103;exitY=0.01;exitDx=0;exitDy=0;exitPerimeter=0;strokeColor=#0cb300;" edge="1" parent="WIyWlLk6GJQsqaUBKTNV-1" source="PNOjumnexGEibMNlzpDn-3">
          <mxGeometry width="50" height="50" relative="1" as="geometry">
            <mxPoint x="812.5" y="3660" as="sourcePoint" />
            <mxPoint x="732.5" y="3560" as="targetPoint" />
            <Array as="points">
              <mxPoint x="812.5" y="3640" />
              <mxPoint x="732.5" y="3640" />
            </Array>
          </mxGeometry>
        </mxCell>
        <mxCell id="PNOjumnexGEibMNlzpDn-95" value="" style="endArrow=classic;html=1;rounded=0;entryX=0;entryY=0.5;entryDx=0;entryDy=0;exitX=0.215;exitY=1.012;exitDx=0;exitDy=0;exitPerimeter=0;strokeColor=#FF00FF;" edge="1" parent="WIyWlLk6GJQsqaUBKTNV-1" source="PNOjumnexGEibMNlzpDn-3" target="PNOjumnexGEibMNlzpDn-22">
          <mxGeometry width="50" height="50" relative="1" as="geometry">
            <mxPoint x="869.5" y="3695" as="sourcePoint" />
            <mxPoint x="757.5" y="3760" as="targetPoint" />
            <Array as="points">
              <mxPoint x="872.5" y="3720" />
              <mxPoint x="742.5" y="3720" />
              <mxPoint x="742.5" y="3760" />
            </Array>
          </mxGeometry>
        </mxCell>
        <mxCell id="PNOjumnexGEibMNlzpDn-97" value="&lt;font color=&quot;#6600cc&quot;&gt;B:R, M:C&lt;/font&gt;" style="text;html=1;strokeColor=none;fillColor=none;align=center;verticalAlign=middle;whiteSpace=wrap;rounded=0;container=0;" vertex="1" parent="WIyWlLk6GJQsqaUBKTNV-1">
          <mxGeometry x="812.5" y="3695" width="60" height="30" as="geometry" />
        </mxCell>
        <mxCell id="PNOjumnexGEibMNlzpDn-98" value="" style="endArrow=classic;html=1;rounded=0;exitX=0.705;exitY=1.071;exitDx=0;exitDy=0;exitPerimeter=0;entryX=0;entryY=0.5;entryDx=0;entryDy=0;" edge="1" parent="WIyWlLk6GJQsqaUBKTNV-1" source="PNOjumnexGEibMNlzpDn-22" target="PNOjumnexGEibMNlzpDn-4">
          <mxGeometry width="50" height="50" relative="1" as="geometry">
            <mxPoint x="962.5" y="3890" as="sourcePoint" />
            <mxPoint x="1012.5" y="3840" as="targetPoint" />
            <Array as="points">
              <mxPoint x="1134.5" y="3800" />
              <mxPoint x="742.5" y="3800" />
              <mxPoint x="742.5" y="3845" />
            </Array>
          </mxGeometry>
        </mxCell>
        <mxCell id="PNOjumnexGEibMNlzpDn-100" value="&lt;font color=&quot;#6600cc&quot;&gt;B:R, M:C&lt;/font&gt;" style="text;html=1;strokeColor=none;fillColor=none;align=center;verticalAlign=middle;whiteSpace=wrap;rounded=0;container=0;" vertex="1" parent="WIyWlLk6GJQsqaUBKTNV-1">
          <mxGeometry x="1073.5" y="3775" width="60" height="30" as="geometry" />
        </mxCell>
        <mxCell id="PNOjumnexGEibMNlzpDn-101" value="" style="endArrow=none;html=1;rounded=0;exitX=0.5;exitY=0;exitDx=0;exitDy=0;strokeColor=#FF00FF;" edge="1" parent="WIyWlLk6GJQsqaUBKTNV-1" source="PNOjumnexGEibMNlzpDn-7">
          <mxGeometry width="50" height="50" relative="1" as="geometry">
            <mxPoint x="982.5" y="4030" as="sourcePoint" />
            <mxPoint x="742.5" y="3760" as="targetPoint" />
            <Array as="points">
              <mxPoint x="1024.5" y="3890" />
              <mxPoint x="732.5" y="3890" />
              <mxPoint x="732.5" y="3760" />
            </Array>
          </mxGeometry>
        </mxCell>
        <mxCell id="PNOjumnexGEibMNlzpDn-102" value="" style="endArrow=classic;html=1;rounded=0;entryX=0;entryY=0.5;entryDx=0;entryDy=0;exitX=0.814;exitY=0.974;exitDx=0;exitDy=0;exitPerimeter=0;" edge="1" parent="WIyWlLk6GJQsqaUBKTNV-1" source="PNOjumnexGEibMNlzpDn-22" target="PNOjumnexGEibMNlzpDn-6">
          <mxGeometry width="50" height="50" relative="1" as="geometry">
            <mxPoint x="1032.5" y="4030" as="sourcePoint" />
            <mxPoint x="1082.5" y="3980" as="targetPoint" />
            <Array as="points">
              <mxPoint x="1192.5" y="3800" />
              <mxPoint x="1312.5" y="3800" />
              <mxPoint x="1312.5" y="3980" />
              <mxPoint x="742.5" y="3980" />
              <mxPoint x="742.5" y="4020" />
            </Array>
          </mxGeometry>
        </mxCell>
        <mxCell id="PNOjumnexGEibMNlzpDn-103" value="&lt;font color=&quot;#6600cc&quot;&gt;B:R, M:C&lt;/font&gt;" style="text;html=1;strokeColor=none;fillColor=none;align=center;verticalAlign=middle;whiteSpace=wrap;rounded=0;container=0;" vertex="1" parent="WIyWlLk6GJQsqaUBKTNV-1">
          <mxGeometry x="1188.5" y="3779" width="60" height="30" as="geometry" />
        </mxCell>
        <mxCell id="PNOjumnexGEibMNlzpDn-105" value="&lt;font color=&quot;#6600cc&quot;&gt;B:R, M:C&lt;/font&gt;" style="text;html=1;strokeColor=none;fillColor=none;align=center;verticalAlign=middle;whiteSpace=wrap;rounded=0;container=0;" vertex="1" parent="WIyWlLk6GJQsqaUBKTNV-1">
          <mxGeometry x="969.5" y="3868" width="60" height="30" as="geometry" />
        </mxCell>
      </root>
    </mxGraphModel>
  </diagram>
</mxfile>
